<?xml version="1.0" encoding="utf-8"?>
<!-- Generator: Adobe Illustrator 23.0.1, SVG Export Plug-In . SVG Version: 6.00 Build 0)  -->
<svg version="1.1" id="Livello_1" xmlns="http://www.w3.org/2000/svg" xmlns:xlink="http://www.w3.org/1999/xlink" x="0px" y="0px"
	 viewBox="0 0 15 16.7" style="enable-background:new 0 0 15 16.7;" xml:space="preserve">
<style type="text/css">
	.st0{fill-rule:evenodd;clip-rule:evenodd;}
</style>
<path class="st0" d="M4.2,1.7h6.7V0h1.7v1.7h0.8c0.4,0,0.9,0.2,1.2,0.5C14.8,2.5,15,2.9,15,3.3V15c0,0.4-0.2,0.9-0.5,1.2
	c-0.3,0.3-0.7,0.5-1.2,0.5H1.7c-0.4,0-0.9-0.2-1.2-0.5C0.2,15.9,0,15.4,0,15V3.3c0-0.4,0.2-0.9,0.5-1.2c0.3-0.3,0.7-0.5,1.2-0.5h0.8
	V0h1.7V1.7z M1.7,5v10h11.7V5H1.7z M3.3,7.5H5v1.7H3.3V7.5z M6.7,7.5h1.7v1.7H6.7V7.5z M10,7.5h1.7v1.7H10V7.5z M10,10.8h1.7v1.7H10
	V10.8z M6.7,10.8h1.7v1.7H6.7V10.8z M3.3,10.8H5v1.7H3.3V10.8z"/>
</svg>
