<svg width="17" height="18" viewBox="0 0 17 18" fill="none" xmlns="http://www.w3.org/2000/svg">
<path d="M8.49347 4.12744C7.33575 4.12744 6.22545 4.58734 5.40683 5.40597C4.5882 6.2246 4.1283 7.3349 4.1283 8.49261C4.1283 9.65033 4.5882 10.7606 5.40683 11.5793C6.22545 12.3979 7.33575 12.8578 8.49347 12.8578C9.65118 12.8578 10.7615 12.3979 11.5801 11.5793C12.3987 10.7606 12.8586 9.65033 12.8586 8.49261C12.8586 7.3349 12.3987 6.2246 11.5801 5.40597C10.7615 4.58734 9.65118 4.12744 8.49347 4.12744ZM8.49347 11.3275C7.74135 11.3275 7.02004 11.0287 6.48822 10.4969C5.95639 9.96509 5.65762 9.24378 5.65762 8.49167C5.65762 7.73955 5.95639 7.01825 6.48822 6.48642C7.02004 5.95459 7.74135 5.65582 8.49347 5.65582C9.24558 5.65582 9.96689 5.95459 10.4987 6.48642C11.0305 7.01825 11.3293 7.73955 11.3293 8.49167C11.3293 9.24378 11.0305 9.96509 10.4987 10.4969C9.96689 11.0287 9.24558 11.3275 8.49347 11.3275Z" fill="black"/>
<path d="M13.0319 4.98454C13.594 4.98454 14.0496 4.52891 14.0496 3.96688C14.0496 3.40484 13.594 2.94922 13.0319 2.94922C12.4699 2.94922 12.0143 3.40484 12.0143 3.96688C12.0143 4.52891 12.4699 4.98454 13.0319 4.98454Z" fill="black"/>
<path d="M16.5497 2.93214C16.3312 2.36778 15.9972 1.85528 15.5692 1.42742C15.1412 0.999567 14.6285 0.665794 14.0641 0.447468C13.4036 0.199526 12.7058 0.0654598 12.0004 0.0509773C11.0913 0.0113282 10.8034 0 8.49811 0C6.1928 0 5.89732 -9.49527e-08 4.99578 0.0509773C4.29096 0.0647193 3.59367 0.198813 2.93403 0.447468C2.36944 0.665539 1.85667 0.999222 1.42862 1.42711C1.00058 1.855 0.666697 2.36764 0.448412 2.93214C0.200421 3.59259 0.0666619 4.29044 0.0528654 4.99578C0.0122723 5.90393 0 6.19186 0 8.49811C0 10.8034 -7.03353e-09 11.097 0.0528654 12.0004C0.0670258 12.7066 0.200133 13.4033 0.448412 14.065C0.66731 14.6293 1.00151 15.1418 1.42967 15.5696C1.85782 15.9974 2.37051 16.3312 2.93497 16.5497C3.59337 16.8076 4.29094 16.9513 4.99767 16.9745C5.90676 17.0142 6.19469 17.0264 8.5 17.0264C10.8053 17.0264 11.1008 17.0264 12.0023 16.9745C12.7076 16.9602 13.4054 16.8264 14.066 16.579C14.6303 16.3601 15.1427 16.0261 15.5707 15.5981C15.9987 15.1701 16.3328 14.6576 16.5516 14.0933C16.7999 13.4325 16.933 12.7358 16.9471 12.0297C16.9877 11.1216 17 10.8336 17 8.52738C17 6.22112 17 5.92848 16.9471 5.02504C16.9361 4.30973 16.8017 3.60169 16.5497 2.93214ZM15.3999 11.9306C15.3938 12.4746 15.2945 13.0136 15.1063 13.5241C14.9645 13.8912 14.7475 14.2246 14.4691 14.5028C14.1908 14.7809 13.8573 14.9978 13.4901 15.1393C12.9853 15.3267 12.452 15.426 11.9136 15.4329C11.0168 15.4745 10.7638 15.4848 8.46413 15.4848C6.1626 15.4848 5.92753 15.4848 5.01372 15.4329C4.47555 15.4263 3.94256 15.327 3.43814 15.1393C3.06967 14.9987 2.73484 14.7822 2.4553 14.504C2.17577 14.2257 1.95775 13.8919 1.81536 13.5241C1.62981 13.0191 1.53056 12.4865 1.52177 11.9485C1.48117 11.0517 1.47173 10.7987 1.47173 8.49906C1.47173 6.19847 1.47173 5.96341 1.52177 5.04865C1.52787 4.50491 1.62717 3.96624 1.81536 3.45608C2.10329 2.71124 2.6933 2.125 3.43814 1.8399C3.9428 1.65312 4.47565 1.55383 5.01372 1.54631C5.91148 1.50572 6.16354 1.49439 8.46413 1.49439C10.7647 1.49439 11.0007 1.49439 11.9136 1.54631C12.4521 1.55279 12.9854 1.65211 13.4901 1.8399C13.8573 1.98177 14.1907 2.19882 14.469 2.47715C14.7474 2.75548 14.9644 3.08892 15.1063 3.45608C15.2918 3.96108 15.3911 4.49371 15.3999 5.03165C15.4405 5.92942 15.4509 6.18148 15.4509 8.48206C15.4509 10.7817 15.4509 11.029 15.4103 11.9315H15.3999V11.9306Z" fill="black"/>
</svg>
