<svg width="22" height="16" viewBox="0 0 22 16" fill="none" xmlns="http://www.w3.org/2000/svg">
<path d="M21.5469 2.50353C21.2932 1.52471 20.5502 0.752941 19.6078 0.489412C17.8862 0 11 0 11 0C11 0 4.11366 0 2.39208 0.470588C1.46787 0.734118 0.706752 1.52471 0.453046 2.50353C0 4.29176 0 8 0 8C0 8 0 11.7271 0.453046 13.4965C0.706752 14.4753 1.44975 15.2471 2.39208 15.5106C4.13178 16 11 16 11 16C11 16 17.8862 16 19.6078 15.5294C20.5502 15.2659 21.2932 14.4941 21.5469 13.5153C21.9999 11.7271 21.9999 8.01882 21.9999 8.01882C21.9999 8.01882 22.018 4.29176 21.5469 2.50353Z" fill="#282828"/>
<path d="M14.5341 7.99986L8.80762 4.57397V11.4257L14.5341 7.99986Z" fill="#FFEC39"/>
</svg>
