<svg width="17" height="17" viewBox="0 0 17 17" fill="none" xmlns="http://www.w3.org/2000/svg">
<path d="M3.80557 17H0.281107V5.65007H3.80557V17ZM2.04121 4.10186C0.914357 4.10186 0 3.16807 0 2.04121C0 1.49985 0.215056 0.98066 0.597858 0.597858C0.98066 0.215056 1.49985 0 2.04121 0C2.58258 0 3.10177 0.215056 3.48457 0.597858C3.86737 0.98066 4.08243 1.49985 4.08243 2.04121C4.08243 3.16807 3.16807 4.10186 2.04121 4.10186ZM16.9964 17H13.4798V11.475C13.4798 10.1581 13.4531 8.46964 11.6474 8.46964C9.81507 8.46964 9.53396 9.90007 9.53396 11.3803V17H6.01314V5.65007H9.39311V7.19829H9.44229C9.91282 6.30639 11.0621 5.36532 12.7767 5.36532C16.3437 5.36532 16.9994 7.71436 16.9994 10.7653V17H16.9964Z" fill="black"/>
</svg>
