<?xml version="1.0" encoding="utf-8"?>
<!-- Generator: Adobe Illustrator 23.0.1, SVG Export Plug-In . SVG Version: 6.00 Build 0)  -->
<svg width="20" height="21" viewBox="0 0 20 21" fill="none" xmlns="http://www.w3.org/2000/svg">
<path d="M19.2 0.170898H0.8C0.3575 0.170898 0 0.528398 0 0.970898V19.3709C0 19.8134 0.3575 20.1709 0.8 20.1709H19.2C19.6425 20.1709 20 19.8134 20 19.3709V0.970898C20 0.528398 19.6425 0.170898 19.2 0.170898ZM16.89 6.0084H15.2925C14.04 6.0084 13.7975 6.6034 13.7975 7.4784V9.4059H16.7875L16.3975 12.4234H13.7975V20.1709H10.68V12.4259H8.0725V9.4059H10.68V7.1809C10.68 4.5984 12.2575 3.1909 14.5625 3.1909C15.6675 3.1909 16.615 3.2734 16.8925 3.3109V6.0084H16.89Z" fill="black"/>
</svg>

