<?xml version="1.0" encoding="utf-8"?>
<!-- Generator: Adobe Illustrator 23.0.1, SVG Export Plug-In . SVG Version: 6.00 Build 0)  -->
<svg width="20" height="21" viewBox="0 0 20 21" fill="none" xmlns="http://www.w3.org/2000/svg">
<path d="M12.7583 7.60805C15.0921 9.94434 15.0601 13.69 12.7723 15.9905C12.768 15.9951 12.763 16.0002 12.7583 16.0049L10.1333 18.6299C7.81805 20.9451 4.0513 20.9448 1.73642 18.6299C-0.578807 16.3151 -0.578807 12.5479 1.73642 10.233L3.18587 8.7836C3.57025 8.39922 4.2322 8.65469 4.25204 9.19789C4.27735 9.89016 4.40149 10.5857 4.63056 11.2573C4.70813 11.4847 4.65271 11.7363 4.48278 11.9062L3.97157 12.4174C2.87681 13.5122 2.84247 15.2948 3.92646 16.4002C5.02114 17.5166 6.82044 17.5232 7.92352 16.4201L10.5485 13.7955C11.6497 12.6943 11.6451 10.9144 10.5485 9.81781C10.4039 9.67352 10.2583 9.56141 10.1446 9.48309C10.0641 9.42783 9.99765 9.35453 9.95054 9.26903C9.90342 9.18354 9.87694 9.08821 9.8732 8.99067C9.85773 8.57789 10.004 8.15254 10.3302 7.82637L11.1526 7.00391C11.3682 6.78825 11.7066 6.76177 11.9566 6.9363C12.243 7.13628 12.5113 7.36106 12.7583 7.60805ZM18.2635 2.10252C15.9487 -0.212401 12.1819 -0.212714 9.86668 2.10252L7.24168 4.72751C7.237 4.7322 7.23192 4.73728 7.22762 4.74196C4.93989 7.04243 4.90782 10.7881 7.24168 13.1244C7.48867 13.3714 7.7569 13.5961 8.04328 13.7961C8.29336 13.9706 8.63172 13.9441 8.84735 13.7285L9.66977 12.906C9.99594 12.5798 10.1422 12.1545 10.1267 11.7417C10.123 11.6442 10.0965 11.5488 10.0494 11.4634C10.0023 11.3779 9.93582 11.3046 9.85535 11.2493C9.7416 11.171 9.59598 11.0589 9.45141 10.9146C8.35481 9.81797 8.3502 8.03805 9.45141 6.93684L12.0764 4.31224C13.1795 3.20915 14.9787 3.2158 16.0735 4.33216C17.1574 5.43763 17.1231 7.2202 16.0283 8.31497L15.5171 8.82618C15.3472 8.9961 15.2918 9.24766 15.3694 9.47508C15.5984 10.1467 15.7226 10.8422 15.7479 11.5345C15.7678 12.0777 16.4297 12.3332 16.814 11.9488L18.2635 10.4993C20.5788 8.18454 20.5788 4.41736 18.2635 2.10252Z" fill="black"/>
</svg>

