<?xml version="1.0" encoding="utf-8"?>
<!-- Generator: Adobe Illustrator 23.0.1, SVG Export Plug-In . SVG Version: 6.00 Build 0)  -->
<svg version="1.1" id="Livello_1" xmlns="http://www.w3.org/2000/svg" xmlns:xlink="http://www.w3.org/1999/xlink" x="0px" y="0px"
	 viewBox="0 0 20 20" style="enable-background:new 0 0 20 20;" xml:space="preserve">
<path d="M20,3.9c-0.7,0.3-1.5,0.5-2.4,0.6c0.9-0.5,1.5-1.3,1.8-2.2c-0.8,0.5-1.7,0.8-2.6,1c-0.4-0.4-0.8-0.7-1.4-1
	C15,2,14.4,1.9,13.8,1.9c-2.3,0-4.1,1.8-4.1,4.1c0,0.3,0,0.6,0.1,0.9C6.4,6.8,3.4,5.1,1.4,2.7C1,3.3,0.8,4,0.8,4.7
	c0,1.4,0.7,2.7,1.8,3.4C2,8.1,1.4,7.9,0.8,7.6v0.1c0,2,1.4,3.6,3.3,4c-0.4,0.1-0.7,0.1-1.1,0.1c-0.3,0-0.5,0-0.8-0.1
	c0.5,1.6,2,2.8,3.8,2.8c-1.4,1.1-3.2,1.7-5.1,1.7c-0.3,0-0.7,0-1-0.1c1.8,1.2,4,1.8,6.3,1.8c7.5,0,11.7-6.2,11.7-11.6
	c0-0.2,0-0.4,0-0.5C18.7,5.4,19.4,4.7,20,3.9z"/>
</svg>
