<?xml version="1.0" encoding="utf-8"?>
<!-- Generator: Adobe Illustrator 23.0.1, SVG Export Plug-In . SVG Version: 6.00 Build 0)  -->
<svg version="1.1" id="Livello_1" xmlns="http://www.w3.org/2000/svg" xmlns:xlink="http://www.w3.org/1999/xlink" x="0px" y="0px"
	 viewBox="0 0 20 21" style="enable-background:new 0 0 20 21;" xml:space="preserve">
<style type="text/css">
	.st0{fill-rule:evenodd;clip-rule:evenodd;fill:#FFFFFF;}
</style>
<g>
	<path class="st0" d="M10.3,17.6c1,0.7,2.3,1.1,3.7,1.1c0.4,0,0.7,0,1-0.1c0.1,0,0.2,0.1,0.4,0.2c0.3,0.2,0.7,0.4,1.2,0.8
		c0.4,0.3,1,0,1-0.5v-1.4c0.2-0.1,0.4-0.3,0.6-0.4c1.1-0.9,1.8-2.2,1.8-3.6c0-0.9-0.3-1.7-0.8-2.5c-0.2,0.5-0.4,1-0.6,1.5
		c0.1,0.3,0.2,0.6,0.2,1c0,1-0.5,2-1.4,2.7c-0.2,0.2-0.5,0.3-0.7,0.5c-0.1,0.1-0.2,0.1-0.2,0.2s-0.1,0.2-0.1,0.3V18
		c-0.6-0.4-1-0.5-1.3-0.5c0,0-0.1,0-0.1,0c-0.9,0.1-1.8,0.1-2.6-0.2C11.7,17.5,11,17.6,10.3,17.6L10.3,17.6z M2.8,14.8
		c0.3,0.3,0.7,0.5,1,0.7V18c0,0.6,0.7,1,1.2,0.6c1.4-1,2.4-1.6,2.6-1.6c0.6,0.1,1.1,0.1,1.7,0.1c5.2,0,9.5-3.5,9.5-7.9
		c0-4.4-4.3-7.9-9.5-7.9S0,4.8,0,9.2C0,11.3,1,13.3,2.8,14.8z M7.8,15.4c-0.5,0-1.2,0.3-2.4,1.1v-1.4c0-0.1,0-0.3-0.1-0.4
		c-0.1-0.1-0.2-0.2-0.3-0.3c-0.4-0.2-0.8-0.5-1.2-0.8c-1.5-1.2-2.3-2.8-2.3-4.5c0-3.5,3.5-6.4,7.9-6.4c4.4,0,7.9,2.9,7.9,6.4
		c0,3.5-3.5,6.4-7.9,6.4c-0.5,0-1.1,0-1.6-0.1C7.9,15.4,7.8,15.4,7.8,15.4z M5.4,10.6c0.7,0,1.2-0.5,1.2-1.2c0-0.7-0.6-1.2-1.2-1.2
		S4.2,8.8,4.2,9.5S4.7,10.6,5.4,10.6z M9.5,10.6c0.7,0,1.2-0.5,1.2-1.2c0-0.7-0.6-1.2-1.2-1.2c-0.7,0-1.2,0.5-1.2,1.2
		S8.8,10.6,9.5,10.6z M13.5,10.6c0.7,0,1.2-0.5,1.2-1.2c0-0.7-0.6-1.2-1.2-1.2c-0.7,0-1.2,0.5-1.2,1.2S12.8,10.6,13.5,10.6z"/>
</g>
</svg>
