<?xml version="1.0" encoding="utf-8"?>
<!-- Generator: Adobe Illustrator 23.0.1, SVG Export Plug-In . SVG Version: 6.00 Build 0)  -->
<svg version="1.1" id="Livello_1" xmlns="http://www.w3.org/2000/svg" xmlns:xlink="http://www.w3.org/1999/xlink" x="0px" y="0px"
	 viewBox="0 0 20 21" style="enable-background:new 0 0 20 21;" xml:space="preserve">
<style type="text/css">
	.st0{fill:#FFFFFF;}
</style>
<path class="st0" d="M15.5,2.7H4.5C4.1,2.7,3.9,3,3.9,3.3v14.4c0,0.3,0.2,0.6,0.6,0.6h11.1c0.3,0,0.6-0.2,0.6-0.6V3.3
	C16.1,3,15.9,2.7,15.5,2.7z M11,4h1.7v3.6L11.9,7L11,7.6V4z M14.9,17H5.1V4H10v5.1c0,0.1,0,0.1,0.1,0.2c0,0,0,0.1,0.1,0.1
	c0,0,0.1,0,0.1,0c0,0,0.1,0,0.1,0c0,0,0.1,0,0.1,0l1.5-1l1.4,1c0,0,0.1,0.1,0.2,0.1c0.2,0,0.3-0.1,0.3-0.3V4h1.1L14.9,17L14.9,17z"
	/>
</svg>
