<?xml version="1.0" encoding="utf-8"?>
<!-- Generator: Adobe Illustrator 28.3.0, SVG Export Plug-In . SVG Version: 6.00 Build 0)  -->
<svg version="1.1" id="Layer_1" xmlns="http://www.w3.org/2000/svg" xmlns:xlink="http://www.w3.org/1999/xlink" x="0px" y="0px"
	 viewBox="0 0 187.42 21.38" style="enable-background:new 0 0 187.42 21.38;" xml:space="preserve">
<style type="text/css">
	.st0{fill:#010101;}
</style>
<path class="st0" d="M0,10.73C0,4.68,4.25,0,11.01,0h9.43v1.65h-9.43c-5.85,0-9.18,3.94-9.18,9.1s3.33,8.97,9.18,8.97h9.43v1.65
	h-9.43C4.22,21.38,0,16.78,0,10.73z M13.83,5.36c3.2,0,4.78,2.11,5.01,4.09h-1.93c-0.28-1.27-1.14-2.49-3.1-2.49
	c-1.8,0-3.18,1.32-3.18,3.71c0,2.36,1.37,3.71,3.18,3.71c1.96,0,2.85-1.22,3.1-2.52h1.96c-0.2,1.98-1.78,4.14-5.06,4.14
	c-3.08,0-5.14-2.21-5.14-5.34C8.67,7.63,10.7,5.36,13.83,5.36z M18.91,0h6.53v1.65h-6.53V0z M18.91,19.73h6.53v1.65h-6.53V19.73z
	 M21.25,5.57h1.86v10.22h-1.86V5.57z M23.92,0h12.23v1.65H23.92V0z M23.92,19.73h12.23v1.65H23.92V19.73z M26.26,5.57h4.91
	c1.88,0,3.28,1.12,3.28,2.9c0,1.83-1.58,2.87-3.3,2.87h-0.76c0.23,0.2,0.51,0.51,0.79,0.79l3.56,3.66h-2.42l-4.22-4.47v4.47h-1.83
	V5.57z M30.86,9.86c1.07,0,1.65-0.53,1.65-1.37s-0.58-1.4-1.65-1.4h-2.77v2.77H30.86z M34.62,0H48.1v1.65H34.62V0z M34.62,19.73
	H48.1v1.65H34.62V19.73z M41.49,5.36c3.2,0,4.78,2.11,5.01,4.09h-1.93c-0.28-1.27-1.14-2.49-3.1-2.49c-1.8,0-3.18,1.32-3.18,3.71
	c0,2.36,1.37,3.71,3.18,3.71c1.96,0,2.85-1.22,3.1-2.52h1.96c-0.2,1.98-1.78,4.14-5.06,4.14c-3.08,0-5.14-2.21-5.14-5.34
	C36.33,7.63,38.36,5.36,41.49,5.36z M46.57,0h14.31v1.65H46.57V0z M46.57,19.73h14.31v1.65H46.57V19.73z M53.71,5.36
	c3.1,0,5.49,2.21,5.49,5.31c0,3.13-2.42,5.34-5.49,5.34s-5.47-2.21-5.47-5.34C48.25,7.58,50.64,5.36,53.71,5.36z M53.71,14.41
	c2.03,0,3.53-1.42,3.53-3.74c0-2.29-1.5-3.71-3.53-3.71c-2.01,0-3.51,1.42-3.51,3.71C50.21,12.99,51.7,14.41,53.71,14.41z M59.36,0
	H69.7v1.65H59.36V0z M59.36,19.73H69.7v1.65H59.36V19.73z M61.69,5.57h1.86v8.64h4.86v1.58h-6.71V5.57z M67.72,0h14.31v1.65H67.72V0
	z M67.72,19.73h14.31v1.65H67.72V19.73z M74.86,5.36c3.1,0,5.49,2.21,5.49,5.31c0,3.13-2.42,5.34-5.49,5.34s-5.47-2.21-5.47-5.34
	C69.39,7.58,71.78,5.36,74.86,5.36z M74.86,14.41c2.03,0,3.53-1.42,3.53-3.74c0-2.29-1.5-3.71-3.53-3.71
	c-2.01,0-3.51,1.42-3.51,3.71C71.35,12.99,72.85,14.41,74.86,14.41z M80.5,0h5.85v1.65H80.5V0z M80.5,19.73h5.85v1.65H80.5V19.73z
	 M84.82,0h13.07v1.65H84.82V0z M84.82,19.73h13.07v1.65H84.82V19.73z M87.16,5.57h3.58c2.97,0,5.44,1.8,5.44,5.11
	c0,3.23-2.29,5.11-5.39,5.11h-3.64V5.57z M90.6,14.24c2.14,0,3.64-1.19,3.64-3.53c0-2.44-1.53-3.58-3.61-3.58h-1.6v7.12H90.6z
	 M96.37,0h11.19v1.65H96.37V0z M96.37,19.73h11.19v1.65H96.37V19.73z M98.7,5.57h7.04v1.53h-5.21v2.75h4.75v1.5h-4.75v2.92h5.21
	v1.53H98.7V5.57z M106.02,0h10.35v1.65h-10.35V0z M106.02,19.73h10.35v1.65h-10.35V19.73z M108.36,5.57h1.86v8.64h4.86v1.58h-6.71
	V5.57z M114.36,0h5.85v1.65h-5.85V0z M114.36,19.73h5.85v1.65h-5.85V19.73z M118.68,0h13.07v1.65h-13.07V0z M118.68,19.73h13.07
	v1.65h-13.07V19.73z M121.02,5.57h3.58c2.97,0,5.44,1.8,5.44,5.11c0,3.23-2.29,5.11-5.39,5.11h-3.64V5.57z M124.45,14.24
	c2.14,0,3.64-1.19,3.64-3.53c0-2.44-1.53-3.58-3.61-3.58h-1.6v7.12H124.45z M130.22,0h11.19v1.65h-11.19V0z M130.22,19.73h11.19
	v1.65h-11.19V19.73z M132.56,5.57h7.04v1.53h-5.21v2.75h4.75v1.5h-4.75v2.92h5.21v1.53h-7.04V5.57z M139.88,0h11.67v1.65h-11.67V0z
	 M139.88,19.73h11.67v1.65h-11.67V19.73z M143.24,12.61c0.13,1.04,0.84,1.96,2.47,1.96s2.26-0.79,2.26-1.53
	c0-0.76-0.38-1.27-1.86-1.53l-1.17-0.2c-2.24-0.38-3.13-1.37-3.13-2.97s1.42-2.97,3.74-2.97c2.72,0,3.94,1.6,4.12,3.2h-1.86
	c-0.18-0.94-0.79-1.78-2.26-1.78c-1.4,0-1.96,0.76-1.96,1.4c0,0.76,0.43,1.19,1.83,1.42l1.14,0.18c2.14,0.33,3.36,1.37,3.36,3.1
	c0,1.83-1.58,3.13-4.19,3.13c-2.77,0-4.19-1.53-4.32-3.41H143.24z M150.03,0h6.53v1.65h-6.53V0z M150.03,19.73h6.53v1.65h-6.53
	V19.73z M152.37,5.57h1.86v10.22h-1.86V5.57z M155.03,0h13.47v1.65h-13.47V0z M155.03,19.73h13.47v1.65h-13.47V19.73z M161.95,5.36
	c2.77,0,4.35,1.55,4.63,3.51h-1.96c-0.25-1.22-1.09-1.98-2.75-1.98c-1.88,0-3.23,1.47-3.23,3.81s1.4,3.79,3.51,3.79
	c1.22,0,2.16-0.36,2.72-0.71v-2.08h-3.15v-1.42h4.88v4.47c-0.89,0.66-2.72,1.27-4.4,1.27c-3.48,0-5.47-2.21-5.47-5.34
	C156.74,7.58,158.8,5.36,161.95,5.36z M166.98,19.73h9.43c5.85,0,9.18-3.94,9.18-9.1s-3.33-8.97-9.18-8.97h-9.43V0h9.43
	c6.79,0,11.01,4.6,11.01,10.65s-4.25,10.73-11.01,10.73h-9.43V19.73z M169.32,5.57h2.57l4.42,7.75l-0.03-7.75h1.83v10.22h-2.34
	l-4.63-8.19v8.19h-1.83V5.57z"/>
</svg>
