<?xml version="1.0" encoding="utf-8"?>
<!-- Generator: Adobe Illustrator 28.3.0, SVG Export Plug-In . SVG Version: 6.00 Build 0)  -->
<svg version="1.1" id="Layer_1" xmlns="http://www.w3.org/2000/svg" xmlns:xlink="http://www.w3.org/1999/xlink" x="0px" y="0px"
	 viewBox="0 0 705.14 258.96" style="enable-background:new 0 0 705.14 258.96;" xml:space="preserve">
<style type="text/css">
	.st0{fill:#FFFFFF;}
</style>
<path class="st0" d="M605.3,214.64h-10.34v43.39h10.34V214.64z M559.14,244.31h-10.22c0.55,8.56,7.2,14.65,19.33,14.65
	c11.88,0,18.83-5.42,18.83-13.66c0-7.63-5.23-12-14.71-13.54l-5.17-0.8c-5.11-0.86-6.65-2.16-6.65-4.92c0-2.28,1.97-4.86,6.95-4.86
	c5.29,0,7.57,2.95,8.19,6.46h10.22c-0.8-7.45-6.59-13.91-18.34-13.91c-10.52,0-17.05,5.79-17.05,13.11
	c0,7.26,3.88,11.51,13.54,13.11l5.66,0.92c5.11,0.86,6.52,2.65,6.52,5.35c0,2.65-2.4,5.29-8.12,5.29
	C561.84,251.51,559.51,247.94,559.14,244.31 M543.07,214.64h-31.45v43.39h31.45v-8.06h-21.36v-10.03h19.45v-7.82h-19.45v-9.48h21.36
	V214.64z M479.18,223.07c7.94,0,13.48,4.25,13.48,13.3c0,8.86-5.54,13.23-13.6,13.23h-5.35v-26.53H479.18z M479.55,214.64h-16.19
	v43.39h16.37c14.16,0,23.7-8.12,23.7-21.73C503.43,222.58,493.28,214.64,479.55,214.64 M404.76,214.64h-31.45v43.39h31.45v-8.06
	H383.4v-10.03h19.45v-7.82H383.4v-9.48h21.36L404.76,214.64L404.76,214.64z M340.87,223.07c7.94,0,13.48,4.25,13.48,13.3
	c0,8.86-5.54,13.23-13.6,13.23h-5.35v-26.53H340.87z M341.24,214.64h-16.19v43.39h16.37c14.16,0,23.7-8.12,23.7-21.73
	C365.13,222.58,354.97,214.64,341.24,214.64 M177.02,236.37c0-8.68,5.42-13.97,12.99-13.97s13.05,5.29,13.05,13.97
	c0,8.62-5.48,13.91-13.05,13.91S177.02,244.99,177.02,236.37 M166.19,236.37c0,13.23,10.09,22.59,23.82,22.59
	s23.88-9.36,23.88-22.59c0-13.3-10.16-22.65-23.88-22.65S166.19,223.07,166.19,236.37 M115.9,236.31c0,13.36,8.92,22.65,22.71,22.65
	c13.91,0,21.3-8.74,22.16-18.22h-10.65c-0.92,4.74-4.12,9.48-11.57,9.48c-6.83,0-11.82-4.99-11.82-13.91s4.99-13.91,11.82-13.91
	c7.45,0,10.59,4.8,11.51,9.42h10.65c-0.92-9.42-8.31-18.1-22.1-18.1C124.71,213.72,115.9,223.26,115.9,236.31 M93.44,222.83
	c3.88,0,5.97,1.91,5.97,5.23c0,3.26-2.09,5.17-5.97,5.17h-9.91v-10.4H93.44z M95.34,214.64H73.31v43.39h10.22v-18.16l15.08,18.16
	h12.86L98.05,242.7c-0.8-0.92-1.54-1.85-2.28-2.65c8-0.25,14.28-4.99,14.28-12.62C110.05,219.5,104.02,214.64,95.34,214.64
	 M10.83,236.31c0-8.93,4.98-13.91,11.82-13.91c7.45,0,10.59,4.8,11.51,9.42h10.65c-0.92-9.42-8.31-18.1-22.1-18.1
	C8.8,213.72,0,223.26,0,236.31c0,13.36,8.93,22.65,22.71,22.65c13.91,0,21.3-8.74,22.16-18.22H34.22
	c-0.92,4.74-4.12,9.48-11.57,9.48C15.82,250.22,10.83,245.23,10.83,236.31 M52.57,258.04h10.34v-43.39H52.57
	C52.57,214.65,52.57,258.04,52.57,258.04z M130.77,85.68c0-19.18,11.02-29.78,25.5-29.78c15.71,0,22.64,9.79,24.89,19.99h15.5
	c-1.84-15.91-14.48-32.84-40.19-32.84c-25.09,0-41.41,18.16-41.41,42.64c0,25.09,16.52,42.84,41.21,42.84
	c26.32,0,38.96-17.34,40.6-33.25h-15.71c-2.04,10.4-9.18,20.2-24.89,20.2C141.79,115.46,130.77,104.65,130.77,85.68 M229.91,85.88
	c0,40.39-26.32,72.42-74.05,72.42s-74.05-32.03-74.05-72.42s26.32-72.62,74.05-72.62S229.91,45.49,229.91,85.88 M244.6,85.68
	C244.6,38.96,210.33,0,155.86,0S67.12,38.96,67.12,85.68s34.48,85.88,88.74,85.88S244.6,132.4,244.6,85.68 M221.9,258.04h30.16
	v-8.62h-19.82v-34.78H221.9L221.9,258.04L221.9,258.04z M278.34,222.4c7.57,0,13.05,5.29,13.05,13.97c0,8.62-5.48,13.91-13.05,13.91
	s-12.99-5.29-12.99-13.91C265.35,227.69,270.77,222.4,278.34,222.4 M278.34,213.72c-13.73,0-23.82,9.36-23.82,22.65
	c0,13.23,10.09,22.59,23.82,22.59s23.88-9.36,23.88-22.59C302.22,223.07,292.07,213.72,278.34,213.72 M380.26,85.88
	c0,18.77-12.04,28.36-29.17,28.36h-12.65V57.12h12.85C368.02,57.12,380.26,66.3,380.26,85.88 M395.97,85.68
	c0-26.52-19.79-41-43.66-41h-28.76v82.01h29.17C377.61,126.68,395.97,111.59,395.97,85.68 M427.79,85.88
	c0,40.39-26.32,72.42-74.05,72.42s-74.05-32.03-74.05-72.42S306,13.26,353.74,13.26S427.79,45.49,427.79,85.88 M442.48,85.68
	C442.48,38.96,408.21,0,353.74,0S265,38.96,265,85.68s34.48,85.88,88.74,85.88S442.48,132.4,442.48,85.68 M413.44,258.04h30.16
	v-8.62h-19.82v-34.78h-10.34V258.04z M578.14,85.88c0,18.77-12.04,28.36-29.17,28.36h-12.65V57.12h12.85
	C565.9,57.12,578.14,66.3,578.14,85.88 M593.85,85.68c0-26.52-19.79-41-43.66-41h-28.76v82.01h29.17
	C575.48,126.68,593.85,111.59,593.85,85.68 M625.67,85.88c0,40.39-26.32,72.42-74.05,72.42c-47.74,0-74.05-32.03-74.05-72.42
	s26.32-72.62,74.05-72.62S625.67,45.49,625.67,85.88 M640.36,85.68C640.36,38.96,606.08,0,551.62,0s-88.74,38.96-88.74,85.68
	s34.48,85.88,88.74,85.88S640.36,132.4,640.36,85.68 M637.24,258.96c8.19,0,16.31-2.71,19.7-5.11v-19.88h-21.97v7.26l12.43-0.06
	v7.33c-2.09,1.29-5.73,2.46-10.28,2.46c-8.12,0-13.3-5.54-13.3-14.47c0-8.74,4.92-14.59,12.19-14.59c6.28,0,9.36,2.83,10.34,7.02
	h10.52c-1.23-8.49-8.31-15.2-20.37-15.2c-14.22,0-23.02,9.54-23.02,22.65C613.49,249.54,621.8,258.96,637.24,258.96 M705.14,258.04
	v-43.39h-9.91l0.18,28.87l-16.37-28.87h-13.11v43.39h10.03v-31.02l17.36,31.02H705.14L705.14,258.04z"/>
</svg>
