<svg xmlns="http://www.w3.org/2000/svg" xml:space="preserve" style="enable-background:new 0 0 705.14 258.96" viewBox="0 0 705.14 258.96"><path d="M605.3 214.64h-10.34v43.39h10.34v-43.39zm-46.16 29.67h-10.22c.55 8.56 7.2 14.65 19.33 14.65 11.88 0 18.83-5.42 18.83-13.66 0-7.63-5.23-12-14.71-13.54l-5.17-.8c-5.11-.86-6.65-2.16-6.65-4.92 0-2.28 1.97-4.86 6.95-4.86 5.29 0 7.57 2.95 8.19 6.46h10.22c-.8-7.45-6.59-13.91-18.34-13.91-10.52 0-17.05 5.79-17.05 13.11 0 7.26 3.88 11.51 13.54 13.11l5.66.92c5.11.86 6.52 2.65 6.52 5.35 0 2.65-2.4 5.29-8.12 5.29-6.28 0-8.61-3.57-8.98-7.2m-16.07-29.67h-31.45v43.39h31.45v-8.06h-21.36v-10.03h19.45v-7.82h-19.45v-9.48h21.36v-8zm-63.89 8.43c7.94 0 13.48 4.25 13.48 13.3 0 8.86-5.54 13.23-13.6 13.23h-5.35v-26.53h5.47zm.37-8.43h-16.19v43.39h16.37c14.16 0 23.7-8.12 23.7-21.73 0-13.72-10.15-21.66-23.88-21.66m-74.79 0h-31.45v43.39h31.45v-8.06H383.4v-10.03h19.45v-7.82H383.4v-9.48h21.36v-8zm-63.89 8.43c7.94 0 13.48 4.25 13.48 13.3 0 8.86-5.54 13.23-13.6 13.23h-5.35v-26.53h5.47zm.37-8.43h-16.19v43.39h16.37c14.16 0 23.7-8.12 23.7-21.73.01-13.72-10.15-21.66-23.88-21.66m-164.22 21.73c0-8.68 5.42-13.97 12.99-13.97s13.05 5.29 13.05 13.97c0 8.62-5.48 13.91-13.05 13.91s-12.99-5.29-12.99-13.91m-10.83 0c0 13.23 10.09 22.59 23.82 22.59s23.88-9.36 23.88-22.59c0-13.3-10.16-22.65-23.88-22.65-13.72 0-23.82 9.35-23.82 22.65m-50.29-.06c0 13.36 8.92 22.65 22.71 22.65 13.91 0 21.3-8.74 22.16-18.22h-10.65c-.92 4.74-4.12 9.48-11.57 9.48-6.83 0-11.82-4.99-11.82-13.91s4.99-13.91 11.82-13.91c7.45 0 10.59 4.8 11.51 9.42h10.65c-.92-9.42-8.31-18.1-22.1-18.1-13.9 0-22.71 9.54-22.71 22.59m-22.46-13.48c3.88 0 5.97 1.91 5.97 5.23 0 3.26-2.09 5.17-5.97 5.17h-9.91v-10.4h9.91zm1.9-8.19H73.31v43.39h10.22v-18.16l15.08 18.16h12.86L98.05 242.7c-.8-.92-1.54-1.85-2.28-2.65 8-.25 14.28-4.99 14.28-12.62 0-7.93-6.03-12.79-14.71-12.79m-84.51 21.67c0-8.93 4.98-13.91 11.82-13.91 7.45 0 10.59 4.8 11.51 9.42h10.65c-.92-9.42-8.31-18.1-22.1-18.1C8.8 213.72 0 223.26 0 236.31c0 13.36 8.93 22.65 22.71 22.65 13.91 0 21.3-8.74 22.16-18.22H34.22c-.92 4.74-4.12 9.48-11.57 9.48-6.83 0-11.82-4.99-11.82-13.91m41.74 21.73h10.34v-43.39H52.57v43.39zm78.2-172.36c0-19.18 11.02-29.78 25.5-29.78 15.71 0 22.64 9.79 24.89 19.99h15.5c-1.84-15.91-14.48-32.84-40.19-32.84-25.09 0-41.41 18.16-41.41 42.64 0 25.09 16.52 42.84 41.21 42.84 26.32 0 38.96-17.34 40.6-33.25h-15.71c-2.04 10.4-9.18 20.2-24.89 20.2-14.48-.02-25.5-10.83-25.5-29.8m99.14.2c0 40.39-26.32 72.42-74.05 72.42s-74.05-32.03-74.05-72.42 26.32-72.62 74.05-72.62 74.05 32.23 74.05 72.62m14.69-.2C244.6 38.96 210.33 0 155.86 0S67.12 38.96 67.12 85.68s34.48 85.88 88.74 85.88 88.74-39.16 88.74-85.88m-22.7 172.36h30.16v-8.62h-19.82v-34.78H221.9v43.4zm56.44-35.64c7.57 0 13.05 5.29 13.05 13.97 0 8.62-5.48 13.91-13.05 13.91s-12.99-5.29-12.99-13.91c0-8.68 5.42-13.97 12.99-13.97m0-8.68c-13.73 0-23.82 9.36-23.82 22.65 0 13.23 10.09 22.59 23.82 22.59s23.88-9.36 23.88-22.59c0-13.3-10.15-22.65-23.88-22.65M380.26 85.88c0 18.77-12.04 28.36-29.17 28.36h-12.65V57.12h12.85c16.73 0 28.97 9.18 28.97 28.76m15.71-.2c0-26.52-19.79-41-43.66-41h-28.76v82.01h29.17c24.89-.01 43.25-15.1 43.25-41.01m31.82.2c0 40.39-26.32 72.42-74.05 72.42s-74.05-32.03-74.05-72.42S306 13.26 353.74 13.26s74.05 32.23 74.05 72.62m14.69-.2C442.48 38.96 408.21 0 353.74 0S265 38.96 265 85.68s34.48 85.88 88.74 85.88 88.74-39.16 88.74-85.88m-29.04 172.36h30.16v-8.62h-19.82v-34.78h-10.34v43.4zm164.7-172.16c0 18.77-12.04 28.36-29.17 28.36h-12.65V57.12h12.85c16.73 0 28.97 9.18 28.97 28.76m15.71-.2c0-26.52-19.79-41-43.66-41h-28.76v82.01h29.17c24.88-.01 43.25-15.1 43.25-41.01m31.82.2c0 40.39-26.32 72.42-74.05 72.42-47.74 0-74.05-32.03-74.05-72.42s26.32-72.62 74.05-72.62 74.05 32.23 74.05 72.62m14.69-.2C640.36 38.96 606.08 0 551.62 0s-88.74 38.96-88.74 85.68 34.48 85.88 88.74 85.88 88.74-39.16 88.74-85.88m-3.12 173.28c8.19 0 16.31-2.71 19.7-5.11v-19.88h-21.97v7.26l12.43-.06v7.33c-2.09 1.29-5.73 2.46-10.28 2.46-8.12 0-13.3-5.54-13.3-14.47 0-8.74 4.92-14.59 12.19-14.59 6.28 0 9.36 2.83 10.34 7.02h10.52c-1.23-8.49-8.31-15.2-20.37-15.2-14.22 0-23.02 9.54-23.02 22.65.01 13.17 8.32 22.59 23.76 22.59m67.9-.92v-43.39h-9.91l.18 28.87-16.37-28.87h-13.11v43.39h10.03v-31.02l17.36 31.02h11.82z"/></svg>