<svg xmlns="http://www.w3.org/2000/svg" xml:space="preserve" style="enable-background:new 0 0 573.23 171.56" viewBox="0 0 573.23 171.56"><path d="M63.65 85.68c0-19.18 11.02-29.78 25.5-29.78 15.71 0 22.64 9.79 24.89 19.99h15.5c-1.84-15.91-14.48-32.84-40.19-32.84-25.09 0-41.41 18.16-41.41 42.64 0 25.09 16.52 42.84 41.21 42.84 26.32 0 38.96-17.34 40.6-33.25h-15.71c-2.04 10.4-9.18 20.2-24.89 20.2-14.49-.02-25.5-10.83-25.5-29.8m99.14.2c0 40.39-26.32 72.42-74.05 72.42-47.74 0-74.05-32.03-74.05-72.42S41 13.26 88.74 13.26c47.74 0 74.05 32.23 74.05 72.62m14.69-.2C177.48 38.96 143.21 0 88.74 0S0 38.96 0 85.68s34.48 85.88 88.74 85.88 88.74-39.16 88.74-85.88m135.66.2c0 18.77-12.04 28.36-29.17 28.36h-12.65V57.12h12.85c16.73 0 28.97 9.18 28.97 28.76m15.7-.2c0-26.52-19.79-41-43.66-41h-28.76v82.01h29.17c24.89-.01 43.25-15.1 43.25-41.01m31.83.2c0 40.39-26.32 72.42-74.05 72.42s-74.05-32.03-74.05-72.42 26.32-72.62 74.05-72.62 74.05 32.23 74.05 72.62m14.69-.2C375.36 38.96 341.08 0 286.62 0s-88.74 38.96-88.74 85.68 34.48 85.88 88.74 85.88 88.74-39.16 88.74-85.88m135.65.2c0 18.77-12.04 28.36-29.17 28.36h-12.65V57.12h12.85c16.73 0 28.97 9.18 28.97 28.76m15.71-.2c0-26.52-19.79-41-43.66-41H454.3v82.01h29.17c24.89-.01 43.25-15.1 43.25-41.01m31.83.2c0 40.39-26.32 72.42-74.05 72.42s-74.05-32.03-74.05-72.42 26.32-72.62 74.05-72.62 74.05 32.23 74.05 72.62m14.68-.2C573.23 38.96 538.96 0 484.49 0s-88.74 38.96-88.74 85.68 34.48 85.88 88.74 85.88 88.74-39.16 88.74-85.88"/></svg>