<?xml version="1.0" encoding="utf-8"?>
<!-- Generator: Adobe Illustrator 23.0.1, SVG Export Plug-In . SVG Version: 6.00 Build 0)  -->
<svg version="1.1" id="Livello_1" xmlns="http://www.w3.org/2000/svg" xmlns:xlink="http://www.w3.org/1999/xlink" x="0px" y="0px"
	 viewBox="0 0 314.59 136.9" style="enable-background:new 0 0 314.59 136.9;" xml:space="preserve">
<style type="text/css">
	.st0{fill:none;}
	.st1{fill:#FFFFFF;}
</style>
<g>
	<path class="st0" d="M68.91,123.8h-3.73v5.13h3.75c1.83,0,2.99-1,2.99-2.55v-0.04C71.92,124.7,70.8,123.8,68.91,123.8z"/>
	<path class="st0" d="M157.3,4.14c-25.88,0-46.93,21.05-46.93,46.93S131.42,98,157.3,98s46.93-21.05,46.93-46.93
		C204.23,25.19,183.17,4.14,157.3,4.14z M168.38,51.07c0,7.24-5.32,12.86-13.02,12.86h-6.97c-1.22,0-2.17-0.99-2.17-2.27V40.49
		c0-1.29,0.94-2.28,2.17-2.28h6.97c7.7,0,13.02,5.55,13.02,12.79V51.07z"/>
	<path class="st0" d="M94.63,128.96v0.05c0,2.97,2.06,5.41,4.95,5.41s4.91-2.4,4.91-5.37v-0.04c0-2.97-2.06-5.44-4.96-5.44
		C96.64,123.56,94.63,125.99,94.63,128.96z"/>
	<path class="st0" d="M124.34,128.96v0.05c0,2.97,2.06,5.41,4.95,5.41s4.91-2.4,4.91-5.37v-0.04c0-2.97-2.06-5.44-4.95-5.44
		C126.36,123.56,124.34,125.99,124.34,128.96z"/>
	<path class="st0" d="M206.01,129.05v-0.04c0-3-2-5.2-5.06-5.2h-2.87v10.39h2.87C204.01,134.2,206.01,132.04,206.01,129.05z"/>
	<path class="st0" d="M155.35,42.32h-4.83v17.49h4.83c5.15,0,8.51-3.64,8.51-8.67v-0.07C163.86,46.04,160.5,42.32,155.35,42.32z"/>
	<path class="st0" d="M151.65,123.8h-2.87v10.39h2.87c3.06,0,5.06-2.16,5.06-5.15V129C156.7,126.01,154.7,123.8,151.65,123.8z"/>
	<path class="st0" d="M261.58,42.32h-4.83v17.49h4.83c5.15,0,8.51-3.64,8.51-8.67v-0.07C270.09,46.04,266.73,42.32,261.58,42.32z"/>
	<path class="st0" d="M51.07,98C76.94,98,98,76.95,98,51.07S76.94,4.14,51.07,4.14c-25.88,0-46.93,21.05-46.93,46.93
		C4.14,76.95,25.19,98,51.07,98z M40.04,51.07c0-7.31,5.22-13.3,12.64-13.3c3.78,0,6.27,1.18,8.4,2.91c0.46,0.36,0.84,0.99,0.84,1.8
		c0,1.25-0.95,2.2-2.14,2.2c-0.6,0-1.01-0.22-1.29-0.44c-1.68-1.43-3.5-2.31-5.85-2.31c-4.66,0-8.09,4.04-8.09,9.07v0.07
		c0,5.04,3.4,9.12,8.09,9.12c2.59,0,4.34-0.88,6.12-2.46c0.32-0.3,0.77-0.51,1.29-0.51c1.09,0,2.03,0.95,2.03,2.09
		c0,0.7-0.32,1.25-0.7,1.62c-2.31,2.13-4.94,3.45-8.9,3.45c-7.14,0-12.46-5.84-12.46-13.23v-0.08H40.04z"/>
	<path class="st0" d="M263.53,4.14c-25.88,0-46.93,21.05-46.93,46.93S237.65,98,263.53,98s46.93-21.05,46.93-46.93
		C310.45,25.19,289.4,4.14,263.53,4.14z M274.61,51.07c0,7.24-5.32,12.86-13.02,12.86h-6.97c-1.22,0-2.17-0.99-2.17-2.27V40.49
		c0-1.29,0.94-2.28,2.17-2.28h6.97c7.7,0,13.02,5.55,13.02,12.79V51.07z"/>
	<path class="st1" d="M47.53,123.56c1.39,0,2.48,0.53,3.48,1.37c0.17,0.14,0.41,0.26,0.76,0.26c0.71,0,1.27-0.56,1.27-1.31
		c0-0.48-0.23-0.85-0.5-1.07c-1.27-1.03-2.75-1.73-4.99-1.73c-4.41,0-7.51,3.56-7.51,7.91v0.04c0,4.38,3.17,7.86,7.41,7.86
		c2.35,0,3.91-0.79,5.29-2.05c0.23-0.21,0.42-0.54,0.42-0.95c0-0.68-0.56-1.25-1.21-1.25c-0.31,0-0.58,0.13-0.77,0.31
		c-1.07,0.94-2.11,1.46-3.64,1.46c-2.79,0-4.81-2.42-4.81-5.41v-0.05C42.72,125.97,44.76,123.56,47.53,123.56z"/>
	<path class="st1" d="M58.73,135.42v-12.84c0-0.74-0.56-1.33-1.27-1.33c-0.73,0-1.29,0.59-1.29,1.33v12.84
		c0,0.74,0.56,1.33,1.29,1.33C58.17,136.75,58.73,136.16,58.73,135.42z"/>
	<path class="st1" d="M74.52,126.23v-0.04c0-1.33-0.43-2.47-1.2-3.3c-0.94-0.96-2.37-1.53-4.21-1.53h-5.2
		c-0.73,0-1.29,0.59-1.29,1.35v12.71c0,0.74,0.56,1.33,1.29,1.33c0.71,0,1.27-0.59,1.27-1.33v-4.11h3.23l3.54,4.74
		c0.29,0.42,0.67,0.7,1.25,0.7c0.62,0,1.23-0.5,1.23-1.24c0-0.42-0.17-0.7-0.42-1.03l-2.79-3.69
		C73.17,130.15,74.52,128.67,74.52,126.23z M71.92,126.38c0,1.55-1.16,2.55-2.99,2.55h-3.75v-5.13h3.73c1.89,0,3.01,0.9,3.01,2.54
		C71.92,126.34,71.92,126.38,71.92,126.38z"/>
	<path class="st1" d="M84.5,123.56c1.39,0,2.47,0.53,3.47,1.37c0.16,0.14,0.41,0.26,0.77,0.26c0.71,0,1.27-0.56,1.27-1.31
		c0-0.48-0.23-0.85-0.5-1.07c-1.27-1.03-2.75-1.73-4.99-1.73c-4.41,0-7.51,3.56-7.51,7.91v0.04c0,4.38,3.16,7.86,7.41,7.86
		c2.35,0,3.91-0.79,5.29-2.05c0.23-0.21,0.42-0.54,0.42-0.95c0-0.68-0.56-1.25-1.21-1.25c-0.31,0-0.58,0.13-0.77,0.31
		c-1.06,0.94-2.1,1.46-3.64,1.46c-2.79,0-4.81-2.42-4.81-5.41v-0.05C79.69,125.97,81.74,123.56,84.5,123.56z"/>
	<path class="st1" d="M91.94,129.01v0.04c0,4.3,3.12,7.86,7.59,7.86c4.47,0,7.64-3.61,7.64-7.9v-0.05c0-4.3-3.12-7.86-7.6-7.86
		C95.11,121.09,91.94,124.7,91.94,129.01z M104.49,129.01v0.04c0,2.97-2.02,5.37-4.91,5.37s-4.95-2.44-4.95-5.41v-0.05
		c0-2.97,2.02-5.39,4.91-5.39C102.42,123.56,104.49,126.03,104.49,129.01z"/>
	<path class="st1" d="M111.55,121.25c-0.73,0-1.29,0.59-1.29,1.33v12.71c0,0.77,0.56,1.35,1.29,1.35h7.87
		c0.64,0,1.17-0.54,1.17-1.22c0-0.68-0.52-1.23-1.17-1.23h-6.6v-11.62C112.82,121.84,112.26,121.25,111.55,121.25z"/>
	<path class="st1" d="M121.66,129.01v0.04c0,4.3,3.12,7.86,7.59,7.86c4.47,0,7.63-3.61,7.63-7.9v-0.05c0-4.3-3.12-7.86-7.6-7.86
		C124.82,121.09,121.66,124.7,121.66,129.01z M134.2,129.01v0.04c0,2.97-2.02,5.37-4.91,5.37s-4.95-2.44-4.95-5.41v-0.05
		c0-2.97,2.02-5.39,4.91-5.39C132.14,123.56,134.2,126.03,134.2,129.01z"/>
	<path class="st1" d="M151.65,121.36h-4.14c-0.73,0-1.29,0.59-1.29,1.35v12.58c0,0.76,0.56,1.35,1.29,1.35h4.14
		c4.58,0,7.74-3.34,7.74-7.63v-0.05C159.38,124.66,156.22,121.36,151.65,121.36z M156.7,129.05c0,2.99-2,5.15-5.06,5.15h-2.87v-10.4
		h2.87c3.06,0,5.06,2.21,5.06,5.2V129.05z"/>
	<path class="st1" d="M172.23,123.76c0.63,0,1.14-0.52,1.14-1.2c0-0.65-0.52-1.2-1.14-1.2h-8.46c-0.73,0-1.29,0.59-1.29,1.35v12.58
		c0,0.76,0.56,1.35,1.29,1.35h8.57c0.62,0,1.15-0.52,1.15-1.2c0-0.65-0.52-1.2-1.15-1.2h-7.3v-4.1h6.27c0.62,0,1.14-0.52,1.14-1.18
		c0-0.69-0.52-1.23-1.14-1.23h-6.27v-3.98L172.23,123.76L172.23,123.76z"/>
	<path class="st1" d="M177.7,121.25c-0.73,0-1.29,0.59-1.29,1.33v12.71c0,0.77,0.56,1.35,1.29,1.35h7.86c0.65,0,1.17-0.54,1.17-1.22
		c0-0.68-0.52-1.23-1.17-1.23h-6.59v-11.62C178.97,121.84,178.4,121.25,177.7,121.25z"/>
	<path class="st1" d="M196.81,136.64h4.14c4.58,0,7.74-3.34,7.74-7.63v-0.05c0-4.3-3.16-7.6-7.74-7.6h-4.14
		c-0.73,0-1.29,0.59-1.29,1.35v12.58C195.52,136.05,196.08,136.64,196.81,136.64z M198.08,123.8h2.87c3.06,0,5.06,2.21,5.06,5.2
		v0.04c0,2.99-2,5.15-5.06,5.15h-2.87V123.8z"/>
	<path class="st1" d="M221.54,123.76c0.62,0,1.14-0.52,1.14-1.2c0-0.65-0.52-1.2-1.14-1.2h-8.47c-0.73,0-1.29,0.59-1.29,1.35v12.58
		c0,0.76,0.56,1.35,1.29,1.35h8.57c0.62,0,1.15-0.52,1.15-1.2c0-0.65-0.52-1.2-1.15-1.2h-7.31v-4.1h6.27c0.62,0,1.14-0.52,1.14-1.18
		c0-0.69-0.52-1.23-1.14-1.23h-6.27v-3.98L221.54,123.76L221.54,123.76z"/>
	<path class="st1" d="M230.87,134.48c-1.58,0-2.87-0.56-4.08-1.57c-0.16-0.13-0.4-0.24-0.74-0.24c-0.67,0-1.21,0.55-1.21,1.25
		c0,0.43,0.21,0.81,0.5,1.02c1.62,1.27,3.5,1.93,5.47,1.93c3.06,0,5.2-1.71,5.2-4.56v-0.05c0-2.53-1.58-3.69-4.66-4.48
		c-2.81-0.7-3.47-1.23-3.47-2.4v-0.04c0-1.01,0.87-1.81,2.37-1.81c1.14,0,2.22,0.4,3.35,1.16c0.21,0.13,0.41,0.2,0.67,0.2
		c0.66,0,1.2-0.56,1.2-1.25c0-0.52-0.27-0.9-0.56-1.07c-1.31-0.92-2.79-1.42-4.62-1.42c-2.89,0-4.97,1.82-4.97,4.43v0.04
		c0,2.82,1.75,3.78,4.85,4.57c2.7,0.65,3.28,1.25,3.28,2.33v0.04C233.45,133.7,232.45,134.48,230.87,134.48z"/>
	<path class="st1" d="M241.72,135.42v-12.84c0-0.74-0.56-1.33-1.27-1.33c-0.73,0-1.29,0.59-1.29,1.33v12.84
		c0,0.74,0.56,1.33,1.29,1.33C241.16,136.75,241.72,136.16,241.72,135.42z"/>
	<path class="st1" d="M252.38,123.56c1.58,0,2.6,0.48,3.54,1.2c0.21,0.15,0.46,0.31,0.79,0.31c0.71,0,1.27-0.61,1.27-1.33
		c0-0.52-0.27-0.9-0.52-1.09c-1.33-1.01-2.79-1.55-4.97-1.55c-4.39,0-7.51,3.63-7.51,7.91v0.04c0,4.45,3,7.86,7.55,7.86
		c2.18,0,3.93-0.79,5.18-1.66c0.6-0.39,0.9-0.94,0.9-1.7v-4.09c0-0.76-0.56-1.35-1.29-1.35h-4.05c-0.63,0-1.15,0.52-1.15,1.18
		c0,0.65,0.52,1.16,1.15,1.16h2.87v2.86c-0.9,0.71-2.14,1.16-3.52,1.16c-2.97,0-4.95-2.31-4.95-5.45v-0.05
		C247.65,126.03,249.69,123.56,252.38,123.56z"/>
	<path class="st1" d="M264.43,135.44v-9.69l7.49,10.17c0.35,0.48,0.73,0.8,1.33,0.8h0.1c0.71,0,1.25-0.58,1.25-1.32v-12.84
		c0-0.72-0.56-1.31-1.27-1.31c-0.68,0-1.25,0.59-1.25,1.31v9.39l-7.28-9.89c-0.35-0.46-0.71-0.79-1.33-0.79h-0.27
		c-0.73,0-1.29,0.61-1.29,1.35v12.82c0,0.72,0.56,1.31,1.27,1.31C263.87,136.75,264.43,136.16,264.43,135.44z"/>
	<path class="st1" d="M52.5,64.37c3.96,0,6.58-1.32,8.9-3.45c0.38-0.37,0.7-0.92,0.7-1.62c0-1.14-0.95-2.09-2.03-2.09
		c-0.52,0-0.98,0.22-1.29,0.51c-1.78,1.58-3.54,2.46-6.12,2.46c-4.69,0-8.09-4.08-8.09-9.12V51c0-5.03,3.43-9.07,8.09-9.07
		c2.34,0,4.16,0.88,5.85,2.31c0.28,0.22,0.7,0.44,1.29,0.44c1.19,0,2.14-0.95,2.14-2.2c0-0.81-0.38-1.43-0.84-1.8
		c-2.13-1.73-4.62-2.91-8.4-2.91c-7.42,0-12.64,5.99-12.64,13.3v0.08C40.04,58.53,45.36,64.37,52.5,64.37z"/>
	<path class="st1" d="M51.07,102.14c28.16,0,51.07-22.91,51.07-51.07S79.23,0,51.07,0S0,22.91,0,51.07S22.91,102.14,51.07,102.14z
		 M51.07,4.14C76.94,4.14,98,25.19,98,51.07S76.94,98,51.07,98C25.19,98,4.14,76.95,4.14,51.07S25.19,4.14,51.07,4.14z"/>
	<path class="st1" d="M155.35,38.21h-6.97c-1.22,0-2.17,0.99-2.17,2.28v21.17c0,1.28,0.94,2.27,2.17,2.27h6.97
		c7.7,0,13.02-5.62,13.02-12.86V51C168.38,43.76,163.06,38.21,155.35,38.21z M163.86,51.14c0,5.03-3.36,8.67-8.51,8.67h-4.83V42.32
		h4.83c5.15,0,8.51,3.72,8.51,8.75V51.14z"/>
	<path class="st1" d="M208.37,51.07C208.37,22.91,185.46,0,157.3,0s-51.07,22.91-51.07,51.07s22.91,51.07,51.07,51.07
		S208.37,79.23,208.37,51.07z M157.3,98c-25.88,0-46.93-21.05-46.93-46.93S131.42,4.14,157.3,4.14s46.93,21.05,46.93,46.93
		C204.23,76.95,183.17,98,157.3,98z"/>
	<path class="st1" d="M261.58,38.21h-6.97c-1.22,0-2.17,0.99-2.17,2.28v21.17c0,1.28,0.94,2.27,2.17,2.27h6.97
		c7.7,0,13.02-5.62,13.02-12.86V51C274.61,43.76,269.29,38.21,261.58,38.21z M270.09,51.14c0,5.03-3.36,8.67-8.51,8.67h-4.83V42.32
		h4.83c5.15,0,8.51,3.72,8.51,8.75V51.14z"/>
	<path class="st1" d="M314.59,51.04C314.58,22.89,291.68,0,263.53,0c-28.16,0-51.07,22.91-51.07,51.07s22.91,51.07,51.07,51.07
		c28.15,0,51.05-22.89,51.07-51.04v-0.06H314.59z M263.53,98c-25.88,0-46.93-21.05-46.93-46.93s21.05-46.93,46.93-46.93
		s46.93,21.05,46.93,46.93C310.45,76.95,289.4,98,263.53,98z"/>
</g>
</svg>
