<?xml version="1.0" encoding="utf-8"?>
<!-- Generator: Adobe Illustrator 23.0.1, SVG Export Plug-In . SVG Version: 6.00 Build 0)  -->
<svg version="1.1" id="Livello_1" xmlns="http://www.w3.org/2000/svg" xmlns:xlink="http://www.w3.org/1999/xlink" x="0px" y="0px"
	 viewBox="0 0 20 21" style="enable-background:new 0 0 20 21;" xml:space="preserve">
<style type="text/css">
	.st0{fill:#FFFFFF;}
</style>
<path class="st0" d="M10.1,3c-2,0-3.9,0.8-5.3,2.2c-1.4,1.4-2.2,3.3-2.2,5.3H0.1l3.2,3.2l0.1,0.1l3.4-3.4H4.2c0-3.2,2.6-5.8,5.8-5.8
	c3.2,0,5.8,2.6,5.8,5.8s-2.6,5.8-5.8,5.8c-1.6,0-3.1-0.7-4.1-1.7l-1.2,1.2c0.7,0.7,1.5,1.3,2.4,1.6c0.9,0.4,1.9,0.6,2.9,0.6
	c2,0,3.9-0.8,5.3-2.2c1.4-1.4,2.2-3.3,2.2-5.3c0-2-0.8-3.9-2.2-5.3C14,3.8,12.1,3,10.1,3z M9.3,7.2v4.2l3.6,2.1l0.6-1l-2.9-1.7V7.2
	H9.3z"/>
</svg>
